ISO-10303-21;
HEADER;
FILE_DESCRIPTION(('ViewDefinition [CoordinationView]'),'2;1');
FILE_NAME('','2026-10-06T07:48:40',(''),(''),'IfcOpenShell 0.8.5-1c5b825','IfcOpenShell 0.8.5-1c5b825','');
FILE_SCHEMA(('IFC4'));
ENDSEC;
DATA;
#1=IFCPROJECT('0DtuuMGvXLA9B7nONqVf0n',$,'Fieldlink \X2\2022\X0\ Industrial Handover Demonstrator',$,$,$,$,(#10),#5);
#2=IFCSIUNIT(*,.LENGTHUNIT.,$,.METRE.);
#3=IFCSIUNIT(*,.AREAUNIT.,$,.SQUARE_METRE.);
#4=IFCSIUNIT(*,.VOLUMEUNIT.,$,.CUBIC_METRE.);
#5=IFCUNITASSIGNMENT((#4,#2,#3));
#6=IFCCARTESIANPOINT((0.,0.,0.));
#7=IFCDIRECTION((0.,0.,1.));
#8=IFCDIRECTION((1.,0.,0.));
#9=IFCAXIS2PLACEMENT3D(#6,#7,#8);
#10=IFCGEOMETRICREPRESENTATIONCONTEXT($,'Model',3,1.0000000000000001E-05,#9,$);
#11=IFCGEOMETRICREPRESENTATIONSUBCONTEXT('Body','Model',*,*,*,*,#10,$,.MODEL_VIEW.,$);
#12=IFCSITE('0Ja2bR4PHOIAsnPnFKHFrx',$,'Representative site',$,$,$,$,$,$,$,$,$,$,$);
#13=IFCBUILDING('0lfMhmKjrOsvcGhPEGebh1',$,'Northworks Industrial Facility',$,$,$,$,$,$,$,$,$);
#14=IFCBUILDINGSTOREY('3HHCTfBtfRgeFG6bb8SkO7',$,'L00 \X2\2014\X0\ Ground Floor',$,$,$,$,$,$,0.);
#15=IFCRELAGGREGATES('3WYF_PD5PBCfG0qsdbK4oI',$,$,$,#1,(#12));
#16=IFCRELAGGREGATES('0fuk6FQoXDGfWeG$I3KVAU',$,$,$,#12,(#13));
#17=IFCRELAGGREGATES('3g1JnOAJH6wh1AMMsCRuDR',$,$,$,#13,(#14));
#18=IFCSLAB('2HIRlq5vbG8h1mFbc11hH9',$,'Ground floor slab',$,$,$,#28,$,$);
#19=IFCCARTESIANPOINTLIST3D(((0.,0.,-0.34999999999999998),(48.,0.,-0.34999999999999998),(48.,32.,-0.34999999999999998),(0.,32.,-0.34999999999999998),(0.,0.,0.),(48.,0.,0.),(48.,32.,0.),(0.,32.,0.)));
#20=IFCINDEXEDPOLYGONALFACE((1,4,3,2));
#21=IFCINDEXEDPOLYGONALFACE((5,6,7,8));
#22=IFCINDEXEDPOLYGONALFACE((1,2,6,5));
#23=IFCINDEXEDPOLYGONALFACE((2,3,7,6));
#24=IFCINDEXEDPOLYGONALFACE((3,4,8,7));
#25=IFCINDEXEDPOLYGONALFACE((4,1,5,8));
#26=IFCPOLYGONALFACESET(#19,$,(#20,#21,#22,#23,#24,#25),$);
#27=IFCSHAPEREPRESENTATION(#11,'Body','Tessellation',(#26));
#28=IFCPRODUCTDEFINITIONSHAPE($,$,(#27));
#29=IFCRELCONTAINEDINSPATIALSTRUCTURE('2Ua2Al231C89sci4TBs1Fu',$,$,$,(#292,#105,#173,#18,#139,#207,#360,#122,#636,#326,#241,#275,#156,#702,#309,#190,#619,#343,#224,#258,#653),#14);
#30=IFCPROPERTYSET('0aIJMCAY55fhLVxKcdTXgQ',$,'Fieldlink_Provenance',$,(#32,#33,#34,#35));
#31=IFCRELDEFINESBYPROPERTIES('0nbfmSsSzAZ8t35DLDpa6D',$,$,$,(#18),#30);
#32=IFCPROPERTYSINGLEVALUE('Provenance',$,IFCLABEL('Representative model; manually mapped evidence'),$);
#33=IFCPROPERTYSINGLEVALUE('Reference',$,IFCLABEL('floor'),$);
#34=IFCPROPERTYSINGLEVALUE('GridReference',$,IFCLABEL(''),$);
#35=IFCPROPERTYSINGLEVALUE('Discipline',$,IFCLABEL('Structural'),$);
#36=IFCSPACE('2rAda5PlrOCPHdWcSbM3K2',$,'L00-101 \X2\00B7\X0\ Production Hall',$,$,$,#46,$,$,$,$);
#37=IFCCARTESIANPOINTLIST3D(((1.,1.,0.01),(27.,1.,0.01),(27.,18.,0.01),(1.,18.,0.01),(1.,1.,0.050000000000000003),(27.,1.,0.050000000000000003),(27.,18.,0.050000000000000003),(1.,18.,0.050000000000000003)));
#38=IFCINDEXEDPOLYGONALFACE((1,4,3,2));
#39=IFCINDEXEDPOLYGONALFACE((5,6,7,8));
#40=IFCINDEXEDPOLYGONALFACE((1,2,6,5));
#41=IFCINDEXEDPOLYGONALFACE((2,3,7,6));
#42=IFCINDEXEDPOLYGONALFACE((3,4,8,7));
#43=IFCINDEXEDPOLYGONALFACE((4,1,5,8));
#44=IFCPOLYGONALFACESET(#37,$,(#38,#39,#40,#41,#42,#43),$);
#45=IFCSHAPEREPRESENTATION(#11,'Body','Tessellation',(#44));
#46=IFCPRODUCTDEFINITIONSHAPE($,$,(#45));
#47=IFCRELAGGREGATES('0$vUP_BDn2gO_7MceyBtuL',$,$,$,#14,(#36,#54,#71,#88));
#48=IFCPROPERTYSET('2KenMxdU1FRxM9UrUnygiH',$,'Fieldlink_Provenance',$,(#50,#51,#52,#53));
#49=IFCRELDEFINESBYPROPERTIES('1mmcWxzrvFeva7PM4p6_Wx',$,$,$,(#36),#48);
#50=IFCPROPERTYSINGLEVALUE('Provenance',$,IFCLABEL('Representative model; manually mapped evidence'),$);
#51=IFCPROPERTYSINGLEVALUE('Reference',$,IFCLABEL('production'),$);
#52=IFCPROPERTYSINGLEVALUE('GridReference',$,IFCLABEL('B2'),$);
#53=IFCPROPERTYSINGLEVALUE('Discipline',$,IFCLABEL('General'),$);
#54=IFCSPACE('1VOp2$yLrICwJuBH8AmhyE',$,'L00-102 \X2\00B7\X0\ Storage',$,$,$,#64,$,$,$,$);
#55=IFCCARTESIANPOINTLIST3D(((29.,1.,0.01),(47.,1.,0.01),(47.,18.,0.01),(29.,18.,0.01),(29.,1.,0.050000000000000003),(47.,1.,0.050000000000000003),(47.,18.,0.050000000000000003),(29.,18.,0.050000000000000003)));
#56=IFCINDEXEDPOLYGONALFACE((1,4,3,2));
#57=IFCINDEXEDPOLYGONALFACE((5,6,7,8));
#58=IFCINDEXEDPOLYGONALFACE((1,2,6,5));
#59=IFCINDEXEDPOLYGONALFACE((2,3,7,6));
#60=IFCINDEXEDPOLYGONALFACE((3,4,8,7));
#61=IFCINDEXEDPOLYGONALFACE((4,1,5,8));
#62=IFCPOLYGONALFACESET(#55,$,(#56,#57,#58,#59,#60,#61),$);
#63=IFCSHAPEREPRESENTATION(#11,'Body','Tessellation',(#62));
#64=IFCPRODUCTDEFINITIONSHAPE($,$,(#63));
#65=IFCPROPERTYSET('25i9tu6hjArQBjuM37FSRD',$,'Fieldlink_Provenance',$,(#67,#68,#69,#70));
#66=IFCRELDEFINESBYPROPERTIES('1v1T0cQMP39Psgc8t3GFU$',$,$,$,(#54),#65);
#67=IFCPROPERTYSINGLEVALUE('Provenance',$,IFCLABEL('Representative model; manually mapped evidence'),$);
#68=IFCPROPERTYSINGLEVALUE('Reference',$,IFCLABEL('storage'),$);
#69=IFCPROPERTYSINGLEVALUE('GridReference',$,IFCLABEL('D2'),$);
#70=IFCPROPERTYSINGLEVALUE('Discipline',$,IFCLABEL('General'),$);
#71=IFCSPACE('3f_MNuX4LJLP21106PDo3g',$,'L00-103 \X2\00B7\X0\ Assembly',$,$,$,#81,$,$,$,$);
#72=IFCCARTESIANPOINTLIST3D(((1.,20.,0.01),(27.,20.,0.01),(27.,31.,0.01),(1.,31.,0.01),(1.,20.,0.050000000000000003),(27.,20.,0.050000000000000003),(27.,31.,0.050000000000000003),(1.,31.,0.050000000000000003)));
#73=IFCINDEXEDPOLYGONALFACE((1,4,3,2));
#74=IFCINDEXEDPOLYGONALFACE((5,6,7,8));
#75=IFCINDEXEDPOLYGONALFACE((1,2,6,5));
#76=IFCINDEXEDPOLYGONALFACE((2,3,7,6));
#77=IFCINDEXEDPOLYGONALFACE((3,4,8,7));
#78=IFCINDEXEDPOLYGONALFACE((4,1,5,8));
#79=IFCPOLYGONALFACESET(#72,$,(#73,#74,#75,#76,#77,#78),$);
#80=IFCSHAPEREPRESENTATION(#11,'Body','Tessellation',(#79));
#81=IFCPRODUCTDEFINITIONSHAPE($,$,(#80));
#82=IFCPROPERTYSET('192Tx9zEb20eOboZEdHFsT',$,'Fieldlink_Provenance',$,(#84,#85,#86,#87));
#83=IFCRELDEFINESBYPROPERTIES('38wausrR1BPuTkHYK3dTJF',$,$,$,(#71),#82);
#84=IFCPROPERTYSINGLEVALUE('Provenance',$,IFCLABEL('Representative model; manually mapped evidence'),$);
#85=IFCPROPERTYSINGLEVALUE('Reference',$,IFCLABEL('assembly'),$);
#86=IFCPROPERTYSINGLEVALUE('GridReference',$,IFCLABEL('B3'),$);
#87=IFCPROPERTYSINGLEVALUE('Discipline',$,IFCLABEL('General'),$);
#88=IFCSPACE('1gKzFZdAzGqPobjMXEbOGg',$,'L00-104 \X2\00B7\X0\ Loading',$,$,$,#98,$,$,$,$);
#89=IFCCARTESIANPOINTLIST3D(((29.,20.,0.01),(47.,20.,0.01),(47.,31.,0.01),(29.,31.,0.01),(29.,20.,0.050000000000000003),(47.,20.,0.050000000000000003),(47.,31.,0.050000000000000003),(29.,31.,0.050000000000000003)));
#90=IFCINDEXEDPOLYGONALFACE((1,4,3,2));
#91=IFCINDEXEDPOLYGONALFACE((5,6,7,8));
#92=IFCINDEXEDPOLYGONALFACE((1,2,6,5));
#93=IFCINDEXEDPOLYGONALFACE((2,3,7,6));
#94=IFCINDEXEDPOLYGONALFACE((3,4,8,7));
#95=IFCINDEXEDPOLYGONALFACE((4,1,5,8));
#96=IFCPOLYGONALFACESET(#89,$,(#90,#91,#92,#93,#94,#95),$);
#97=IFCSHAPEREPRESENTATION(#11,'Body','Tessellation',(#96));
#98=IFCPRODUCTDEFINITIONSHAPE($,$,(#97));
#99=IFCPROPERTYSET('1p6qDEn8LAYw9FwnHkirl7',$,'Fieldlink_Provenance',$,(#101,#102,#103,#104));
#100=IFCRELDEFINESBYPROPERTIES('350SMu0Gn1xeYcqgeEsNeT',$,$,$,(#88),#99);
#101=IFCPROPERTYSINGLEVALUE('Provenance',$,IFCLABEL('Representative model; manually mapped evidence'),$);
#102=IFCPROPERTYSINGLEVALUE('Reference',$,IFCLABEL('loading'),$);
#103=IFCPROPERTYSINGLEVALUE('GridReference',$,IFCLABEL('D3'),$);
#104=IFCPROPERTYSINGLEVALUE('Discipline',$,IFCLABEL('General'),$);
#105=IFCCOLUMN('1i5ONHAezQdPJNalLmJTUp',$,'Column A1',$,$,$,#115,$,$);
#106=IFCCARTESIANPOINTLIST3D(((0.80000000000000004,0.80000000000000004,0.),(1.2000000000000002,0.80000000000000004,0.),(1.2000000000000002,1.2000000000000002,0.),(0.80000000000000004,1.2000000000000002,0.),(0.80000000000000004,0.80000000000000004,7.5),(1.2000000000000002,0.80000000000000004,7.5),(1.2000000000000002,1.2000000000000002,7.5),(0.80000000000000004,1.2000000000000002,7.5)));
#107=IFCINDEXEDPOLYGONALFACE((1,4,3,2));
#108=IFCINDEXEDPOLYGONALFACE((5,6,7,8));
#109=IFCINDEXEDPOLYGONALFACE((1,2,6,5));
#110=IFCINDEXEDPOLYGONALFACE((2,3,7,6));
#111=IFCINDEXEDPOLYGONALFACE((3,4,8,7));
#112=IFCINDEXEDPOLYGONALFACE((4,1,5,8));
#113=IFCPOLYGONALFACESET(#106,$,(#107,#108,#109,#110,#111,#112),$);
#114=IFCSHAPEREPRESENTATION(#11,'Body','Tessellation',(#113));
#115=IFCPRODUCTDEFINITIONSHAPE($,$,(#114));
#116=IFCPROPERTYSET('1vhhRWbxjFjBLdFxp12TDU',$,'Fieldlink_Provenance',$,(#118,#119,#120,#121));
#117=IFCRELDEFINESBYPROPERTIES('3Afb$$UYHBBwwKhTCV3VRL',$,$,$,(#105),#116);
#118=IFCPROPERTYSINGLEVALUE('Provenance',$,IFCLABEL('Representative model; manually mapped evidence'),$);
#119=IFCPROPERTYSINGLEVALUE('Reference',$,IFCLABEL('column-0-0'),$);
#120=IFCPROPERTYSINGLEVALUE('GridReference',$,IFCLABEL('A1'),$);
#121=IFCPROPERTYSINGLEVALUE('Discipline',$,IFCLABEL('Structural'),$);
#122=IFCCOLUMN('2KijD1JbfHfQiQTak91Zss',$,'Column A2',$,$,$,#132,$,$);
#123=IFCCARTESIANPOINTLIST3D(((0.80000000000000004,10.800000000000001,0.),(1.2000000000000002,10.800000000000001,0.),(1.2000000000000002,11.200000000000001,0.),(0.80000000000000004,11.200000000000001,0.),(0.80000000000000004,10.800000000000001,7.5),(1.2000000000000002,10.800000000000001,7.5),(1.2000000000000002,11.200000000000001,7.5),(0.80000000000000004,11.200000000000001,7.5)));
#124=IFCINDEXEDPOLYGONALFACE((1,4,3,2));
#125=IFCINDEXEDPOLYGONALFACE((5,6,7,8));
#126=IFCINDEXEDPOLYGONALFACE((1,2,6,5));
#127=IFCINDEXEDPOLYGONALFACE((2,3,7,6));
#128=IFCINDEXEDPOLYGONALFACE((3,4,8,7));
#129=IFCINDEXEDPOLYGONALFACE((4,1,5,8));
#130=IFCPOLYGONALFACESET(#123,$,(#124,#125,#126,#127,#128,#129),$);
#131=IFCSHAPEREPRESENTATION(#11,'Body','Tessellation',(#130));
#132=IFCPRODUCTDEFINITIONSHAPE($,$,(#131));
#133=IFCPROPERTYSET('39_EDa5$j56QdmwslcAJc_',$,'Fieldlink_Provenance',$,(#135,#136,#137,#138));
#134=IFCRELDEFINESBYPROPERTIES('0SavwcHJz8qvLwt0jWKkLd',$,$,$,(#122),#133);
#135=IFCPROPERTYSINGLEVALUE('Provenance',$,IFCLABEL('Representative model; manually mapped evidence'),$);
#136=IFCPROPERTYSINGLEVALUE('Reference',$,IFCLABEL('column-0-1'),$);
#137=IFCPROPERTYSINGLEVALUE('GridReference',$,IFCLABEL('A2'),$);
#138=IFCPROPERTYSINGLEVALUE('Discipline',$,IFCLABEL('Structural'),$);
#139=IFCCOLUMN('1Vn_pfLIDL5856aLb4ILWY',$,'Column A3',$,$,$,#149,$,$);
#140=IFCCARTESIANPOINTLIST3D(((0.80000000000000004,20.800000000000001,0.),(1.2000000000000002,20.800000000000001,0.),(1.2000000000000002,21.199999999999999,0.),(0.80000000000000004,21.199999999999999,0.),(0.80000000000000004,20.800000000000001,7.5),(1.2000000000000002,20.800000000000001,7.5),(1.2000000000000002,21.199999999999999,7.5),(0.80000000000000004,21.199999999999999,7.5)));
#141=IFCINDEXEDPOLYGONALFACE((1,4,3,2));
#142=IFCINDEXEDPOLYGONALFACE((5,6,7,8));
#143=IFCINDEXEDPOLYGONALFACE((1,2,6,5));
#144=IFCINDEXEDPOLYGONALFACE((2,3,7,6));
#145=IFCINDEXEDPOLYGONALFACE((3,4,8,7));
#146=IFCINDEXEDPOLYGONALFACE((4,1,5,8));
#147=IFCPOLYGONALFACESET(#140,$,(#141,#142,#143,#144,#145,#146),$);
#148=IFCSHAPEREPRESENTATION(#11,'Body','Tessellation',(#147));
#149=IFCPRODUCTDEFINITIONSHAPE($,$,(#148));
#150=IFCPROPERTYSET('2NvvGcVFj6EekXY_5RO4Rn',$,'Fieldlink_Provenance',$,(#152,#153,#154,#155));
#151=IFCRELDEFINESBYPROPERTIES('1hLvIr7Yn6mhXsB5e1Hakp',$,$,$,(#139),#150);
#152=IFCPROPERTYSINGLEVALUE('Provenance',$,IFCLABEL('Representative model; manually mapped evidence'),$);
#153=IFCPROPERTYSINGLEVALUE('Reference',$,IFCLABEL('column-0-2'),$);
#154=IFCPROPERTYSINGLEVALUE('GridReference',$,IFCLABEL('A3'),$);
#155=IFCPROPERTYSINGLEVALUE('Discipline',$,IFCLABEL('Structural'),$);
#156=IFCCOLUMN('1nxSLmD2DNlglwZ9mELrfY',$,'Column A4',$,$,$,#166,$,$);
#157=IFCCARTESIANPOINTLIST3D(((0.80000000000000004,30.800000000000001,0.),(1.2000000000000002,30.800000000000001,0.),(1.2000000000000002,31.199999999999999,0.),(0.80000000000000004,31.199999999999999,0.),(0.80000000000000004,30.800000000000001,7.5),(1.2000000000000002,30.800000000000001,7.5),(1.2000000000000002,31.199999999999999,7.5),(0.80000000000000004,31.199999999999999,7.5)));
#158=IFCINDEXEDPOLYGONALFACE((1,4,3,2));
#159=IFCINDEXEDPOLYGONALFACE((5,6,7,8));
#160=IFCINDEXEDPOLYGONALFACE((1,2,6,5));
#161=IFCINDEXEDPOLYGONALFACE((2,3,7,6));
#162=IFCINDEXEDPOLYGONALFACE((3,4,8,7));
#163=IFCINDEXEDPOLYGONALFACE((4,1,5,8));
#164=IFCPOLYGONALFACESET(#157,$,(#158,#159,#160,#161,#162,#163),$);
#165=IFCSHAPEREPRESENTATION(#11,'Body','Tessellation',(#164));
#166=IFCPRODUCTDEFINITIONSHAPE($,$,(#165));
#167=IFCPROPERTYSET('3_Tq0Y9yT4bQDj$jUuBUx4',$,'Fieldlink_Provenance',$,(#169,#170,#171,#172));
#168=IFCRELDEFINESBYPROPERTIES('3RAIHKInD3WOqKL1AyZEGF',$,$,$,(#156),#167);
#169=IFCPROPERTYSINGLEVALUE('Provenance',$,IFCLABEL('Representative model; manually mapped evidence'),$);
#170=IFCPROPERTYSINGLEVALUE('Reference',$,IFCLABEL('column-0-3'),$);
#171=IFCPROPERTYSINGLEVALUE('GridReference',$,IFCLABEL('A4'),$);
#172=IFCPROPERTYSINGLEVALUE('Discipline',$,IFCLABEL('Structural'),$);
#173=IFCCOLUMN('2nbErj6S9VyQ8mkoJ_yeSh',$,'Column B1',$,$,$,#183,$,$);
#174=IFCCARTESIANPOINTLIST3D(((15.800000000000001,0.80000000000000004,0.),(16.199999999999999,0.80000000000000004,0.),(16.199999999999999,1.2000000000000002,0.),(15.800000000000001,1.2000000000000002,0.),(15.800000000000001,0.80000000000000004,7.5),(16.199999999999999,0.80000000000000004,7.5),(16.199999999999999,1.2000000000000002,7.5),(15.800000000000001,1.2000000000000002,7.5)));
#175=IFCINDEXEDPOLYGONALFACE((1,4,3,2));
#176=IFCINDEXEDPOLYGONALFACE((5,6,7,8));
#177=IFCINDEXEDPOLYGONALFACE((1,2,6,5));
#178=IFCINDEXEDPOLYGONALFACE((2,3,7,6));
#179=IFCINDEXEDPOLYGONALFACE((3,4,8,7));
#180=IFCINDEXEDPOLYGONALFACE((4,1,5,8));
#181=IFCPOLYGONALFACESET(#174,$,(#175,#176,#177,#178,#179,#180),$);
#182=IFCSHAPEREPRESENTATION(#11,'Body','Tessellation',(#181));
#183=IFCPRODUCTDEFINITIONSHAPE($,$,(#182));
#184=IFCPROPERTYSET('2oQri5f25C58EU5wzojoPE',$,'Fieldlink_Provenance',$,(#186,#187,#188,#189));
#185=IFCRELDEFINESBYPROPERTIES('044wxNLIzBu8DgjV$4cmXJ',$,$,$,(#173),#184);
#186=IFCPROPERTYSINGLEVALUE('Provenance',$,IFCLABEL('Representative model; manually mapped evidence'),$);
#187=IFCPROPERTYSINGLEVALUE('Reference',$,IFCLABEL('column-1-0'),$);
#188=IFCPROPERTYSINGLEVALUE('GridReference',$,IFCLABEL('B1'),$);
#189=IFCPROPERTYSINGLEVALUE('Discipline',$,IFCLABEL('Structural'),$);
#190=IFCCOLUMN('2kWPOEkSDLh8weZqkxdgiX',$,'Column B2',$,$,$,#200,$,$);
#191=IFCCARTESIANPOINTLIST3D(((15.800000000000001,10.800000000000001,0.),(16.199999999999999,10.800000000000001,0.),(16.199999999999999,11.200000000000001,0.),(15.800000000000001,11.200000000000001,0.),(15.800000000000001,10.800000000000001,7.5),(16.199999999999999,10.800000000000001,7.5),(16.199999999999999,11.200000000000001,7.5),(15.800000000000001,11.200000000000001,7.5)));
#192=IFCINDEXEDPOLYGONALFACE((1,4,3,2));
#193=IFCINDEXEDPOLYGONALFACE((5,6,7,8));
#194=IFCINDEXEDPOLYGONALFACE((1,2,6,5));
#195=IFCINDEXEDPOLYGONALFACE((2,3,7,6));
#196=IFCINDEXEDPOLYGONALFACE((3,4,8,7));
#197=IFCINDEXEDPOLYGONALFACE((4,1,5,8));
#198=IFCPOLYGONALFACESET(#191,$,(#192,#193,#194,#195,#196,#197),$);
#199=IFCSHAPEREPRESENTATION(#11,'Body','Tessellation',(#198));
#200=IFCPRODUCTDEFINITIONSHAPE($,$,(#199));
#201=IFCPROPERTYSET('1SjQggYiLFPf9ld8ap1uHr',$,'Fieldlink_Provenance',$,(#203,#204,#205,#206));
#202=IFCRELDEFINESBYPROPERTIES('2Jzhf3$rX3C83YEYjQAYg1',$,$,$,(#190),#201);
#203=IFCPROPERTYSINGLEVALUE('Provenance',$,IFCLABEL('Representative model; manually mapped evidence'),$);
#204=IFCPROPERTYSINGLEVALUE('Reference',$,IFCLABEL('column-1-1'),$);
#205=IFCPROPERTYSINGLEVALUE('GridReference',$,IFCLABEL('B2'),$);
#206=IFCPROPERTYSINGLEVALUE('Discipline',$,IFCLABEL('Structural'),$);
#207=IFCCOLUMN('1xPDPBDkzGYebo1142c2vK',$,'Column B3',$,$,$,#217,$,$);
#208=IFCCARTESIANPOINTLIST3D(((15.800000000000001,20.800000000000001,0.),(16.199999999999999,20.800000000000001,0.),(16.199999999999999,21.199999999999999,0.),(15.800000000000001,21.199999999999999,0.),(15.800000000000001,20.800000000000001,7.5),(16.199999999999999,20.800000000000001,7.5),(16.199999999999999,21.199999999999999,7.5),(15.800000000000001,21.199999999999999,7.5)));
#209=IFCINDEXEDPOLYGONALFACE((1,4,3,2));
#210=IFCINDEXEDPOLYGONALFACE((5,6,7,8));
#211=IFCINDEXEDPOLYGONALFACE((1,2,6,5));
#212=IFCINDEXEDPOLYGONALFACE((2,3,7,6));
#213=IFCINDEXEDPOLYGONALFACE((3,4,8,7));
#214=IFCINDEXEDPOLYGONALFACE((4,1,5,8));
#215=IFCPOLYGONALFACESET(#208,$,(#209,#210,#211,#212,#213,#214),$);
#216=IFCSHAPEREPRESENTATION(#11,'Body','Tessellation',(#215));
#217=IFCPRODUCTDEFINITIONSHAPE($,$,(#216));
#218=IFCPROPERTYSET('3xpIlGa_z5TPefSCh93qPS',$,'Fieldlink_Provenance',$,(#220,#221,#222,#223));
#219=IFCRELDEFINESBYPROPERTIES('3zRyoFjsL3CACBVsXhzXBP',$,$,$,(#207),#218);
#220=IFCPROPERTYSINGLEVALUE('Provenance',$,IFCLABEL('Representative model; manually mapped evidence'),$);
#221=IFCPROPERTYSINGLEVALUE('Reference',$,IFCLABEL('column-1-2'),$);
#222=IFCPROPERTYSINGLEVALUE('GridReference',$,IFCLABEL('B3'),$);
#223=IFCPROPERTYSINGLEVALUE('Discipline',$,IFCLABEL('Structural'),$);
#224=IFCCOLUMN('2UKBUkKJzOWwlPWN_NHZaA',$,'Column B4',$,$,$,#234,$,$);
#225=IFCCARTESIANPOINTLIST3D(((15.800000000000001,30.800000000000001,0.),(16.199999999999999,30.800000000000001,0.),(16.199999999999999,31.199999999999999,0.),(15.800000000000001,31.199999999999999,0.),(15.800000000000001,30.800000000000001,7.5),(16.199999999999999,30.800000000000001,7.5),(16.199999999999999,31.199999999999999,7.5),(15.800000000000001,31.199999999999999,7.5)));
#226=IFCINDEXEDPOLYGONALFACE((1,4,3,2));
#227=IFCINDEXEDPOLYGONALFACE((5,6,7,8));
#228=IFCINDEXEDPOLYGONALFACE((1,2,6,5));
#229=IFCINDEXEDPOLYGONALFACE((2,3,7,6));
#230=IFCINDEXEDPOLYGONALFACE((3,4,8,7));
#231=IFCINDEXEDPOLYGONALFACE((4,1,5,8));
#232=IFCPOLYGONALFACESET(#225,$,(#226,#227,#228,#229,#230,#231),$);
#233=IFCSHAPEREPRESENTATION(#11,'Body','Tessellation',(#232));
#234=IFCPRODUCTDEFINITIONSHAPE($,$,(#233));
#235=IFCPROPERTYSET('1i09v_jtfB7h3tk1ZAV5Al',$,'Fieldlink_Provenance',$,(#237,#238,#239,#240));
#236=IFCRELDEFINESBYPROPERTIES('0jPsZ4Js966fM0KIYKi8WK',$,$,$,(#224),#235);
#237=IFCPROPERTYSINGLEVALUE('Provenance',$,IFCLABEL('Representative model; manually mapped evidence'),$);
#238=IFCPROPERTYSINGLEVALUE('Reference',$,IFCLABEL('column-1-3'),$);
#239=IFCPROPERTYSINGLEVALUE('GridReference',$,IFCLABEL('B4'),$);
#240=IFCPROPERTYSINGLEVALUE('Discipline',$,IFCLABEL('Structural'),$);
#241=IFCCOLUMN('37HoZkdrHLsBiHsHR5EHmH',$,'Column C1',$,$,$,#251,$,$);
#242=IFCCARTESIANPOINTLIST3D(((31.800000000000001,0.80000000000000004,0.),(32.200000000000003,0.80000000000000004,0.),(32.200000000000003,1.2000000000000002,0.),(31.800000000000001,1.2000000000000002,0.),(31.800000000000001,0.80000000000000004,7.5),(32.200000000000003,0.80000000000000004,7.5),(32.200000000000003,1.2000000000000002,7.5),(31.800000000000001,1.2000000000000002,7.5)));
#243=IFCINDEXEDPOLYGONALFACE((1,4,3,2));
#244=IFCINDEXEDPOLYGONALFACE((5,6,7,8));
#245=IFCINDEXEDPOLYGONALFACE((1,2,6,5));
#246=IFCINDEXEDPOLYGONALFACE((2,3,7,6));
#247=IFCINDEXEDPOLYGONALFACE((3,4,8,7));
#248=IFCINDEXEDPOLYGONALFACE((4,1,5,8));
#249=IFCPOLYGONALFACESET(#242,$,(#243,#244,#245,#246,#247,#248),$);
#250=IFCSHAPEREPRESENTATION(#11,'Body','Tessellation',(#249));
#251=IFCPRODUCTDEFINITIONSHAPE($,$,(#250));
#252=IFCPROPERTYSET('3GZ8tpTKPEOPC8NGLW7wBq',$,'Fieldlink_Provenance',$,(#254,#255,#256,#257));
#253=IFCRELDEFINESBYPROPERTIES('2gw6dd1JDBeeJzyRO3C4ft',$,$,$,(#241),#252);
#254=IFCPROPERTYSINGLEVALUE('Provenance',$,IFCLABEL('Representative model; manually mapped evidence'),$);
#255=IFCPROPERTYSINGLEVALUE('Reference',$,IFCLABEL('column-2-0'),$);
#256=IFCPROPERTYSINGLEVALUE('GridReference',$,IFCLABEL('C1'),$);
#257=IFCPROPERTYSINGLEVALUE('Discipline',$,IFCLABEL('Structural'),$);
#258=IFCCOLUMN('2o$GRaogPORgKgh2rKhzHT',$,'Column C2',$,$,$,#268,$,$);
#259=IFCCARTESIANPOINTLIST3D(((31.800000000000001,10.800000000000001,0.),(32.200000000000003,10.800000000000001,0.),(32.200000000000003,11.200000000000001,0.),(31.800000000000001,11.200000000000001,0.),(31.800000000000001,10.800000000000001,7.5),(32.200000000000003,10.800000000000001,7.5),(32.200000000000003,11.200000000000001,7.5),(31.800000000000001,11.200000000000001,7.5)));
#260=IFCINDEXEDPOLYGONALFACE((1,4,3,2));
#261=IFCINDEXEDPOLYGONALFACE((5,6,7,8));
#262=IFCINDEXEDPOLYGONALFACE((1,2,6,5));
#263=IFCINDEXEDPOLYGONALFACE((2,3,7,6));
#264=IFCINDEXEDPOLYGONALFACE((3,4,8,7));
#265=IFCINDEXEDPOLYGONALFACE((4,1,5,8));
#266=IFCPOLYGONALFACESET(#259,$,(#260,#261,#262,#263,#264,#265),$);
#267=IFCSHAPEREPRESENTATION(#11,'Body','Tessellation',(#266));
#268=IFCPRODUCTDEFINITIONSHAPE($,$,(#267));
#269=IFCPROPERTYSET('2DUkFUMPzBKw2rpRE4pBax',$,'Fieldlink_Provenance',$,(#271,#272,#273,#274));
#270=IFCRELDEFINESBYPROPERTIES('1YTSkTwWn05AItHe0eHw4P',$,$,$,(#258),#269);
#271=IFCPROPERTYSINGLEVALUE('Provenance',$,IFCLABEL('Representative model; manually mapped evidence'),$);
#272=IFCPROPERTYSINGLEVALUE('Reference',$,IFCLABEL('column-2-1'),$);
#273=IFCPROPERTYSINGLEVALUE('GridReference',$,IFCLABEL('C2'),$);
#274=IFCPROPERTYSINGLEVALUE('Discipline',$,IFCLABEL('Structural'),$);
#275=IFCCOLUMN('04UOxBnlLGtf5W2ohZe2pn',$,'Column C3',$,$,$,#285,$,$);
#276=IFCCARTESIANPOINTLIST3D(((31.800000000000001,20.800000000000001,0.),(32.200000000000003,20.800000000000001,0.),(32.200000000000003,21.199999999999999,0.),(31.800000000000001,21.199999999999999,0.),(31.800000000000001,20.800000000000001,7.5),(32.200000000000003,20.800000000000001,7.5),(32.200000000000003,21.199999999999999,7.5),(31.800000000000001,21.199999999999999,7.5)));
#277=IFCINDEXEDPOLYGONALFACE((1,4,3,2));
#278=IFCINDEXEDPOLYGONALFACE((5,6,7,8));
#279=IFCINDEXEDPOLYGONALFACE((1,2,6,5));
#280=IFCINDEXEDPOLYGONALFACE((2,3,7,6));
#281=IFCINDEXEDPOLYGONALFACE((3,4,8,7));
#282=IFCINDEXEDPOLYGONALFACE((4,1,5,8));
#283=IFCPOLYGONALFACESET(#276,$,(#277,#278,#279,#280,#281,#282),$);
#284=IFCSHAPEREPRESENTATION(#11,'Body','Tessellation',(#283));
#285=IFCPRODUCTDEFINITIONSHAPE($,$,(#284));
#286=IFCPROPERTYSET('25QvTfnlr7dvn4Swtr6HlZ',$,'Fieldlink_Provenance',$,(#288,#289,#290,#291));
#287=IFCRELDEFINESBYPROPERTIES('0xThhDcI12kRnQ25DqHapi',$,$,$,(#275),#286);
#288=IFCPROPERTYSINGLEVALUE('Provenance',$,IFCLABEL('Representative model; manually mapped evidence'),$);
#289=IFCPROPERTYSINGLEVALUE('Reference',$,IFCLABEL('column-2-2'),$);
#290=IFCPROPERTYSINGLEVALUE('GridReference',$,IFCLABEL('C3'),$);
#291=IFCPROPERTYSINGLEVALUE('Discipline',$,IFCLABEL('Structural'),$);
#292=IFCCOLUMN('1C8sUQmNXKEuu96LmdzPRG',$,'Column C4',$,$,$,#302,$,$);
#293=IFCCARTESIANPOINTLIST3D(((31.800000000000001,30.800000000000001,0.),(32.200000000000003,30.800000000000001,0.),(32.200000000000003,31.199999999999999,0.),(31.800000000000001,31.199999999999999,0.),(31.800000000000001,30.800000000000001,7.5),(32.200000000000003,30.800000000000001,7.5),(32.200000000000003,31.199999999999999,7.5),(31.800000000000001,31.199999999999999,7.5)));
#294=IFCINDEXEDPOLYGONALFACE((1,4,3,2));
#295=IFCINDEXEDPOLYGONALFACE((5,6,7,8));
#296=IFCINDEXEDPOLYGONALFACE((1,2,6,5));
#297=IFCINDEXEDPOLYGONALFACE((2,3,7,6));
#298=IFCINDEXEDPOLYGONALFACE((3,4,8,7));
#299=IFCINDEXEDPOLYGONALFACE((4,1,5,8));
#300=IFCPOLYGONALFACESET(#293,$,(#294,#295,#296,#297,#298,#299),$);
#301=IFCSHAPEREPRESENTATION(#11,'Body','Tessellation',(#300));
#302=IFCPRODUCTDEFINITIONSHAPE($,$,(#301));
#303=IFCPROPERTYSET('1gcjRDZKr9_AVjjM3zTqtw',$,'Fieldlink_Provenance',$,(#305,#306,#307,#308));
#304=IFCRELDEFINESBYPROPERTIES('29R60hTuvBRftg_KK3Qgcv',$,$,$,(#292),#303);
#305=IFCPROPERTYSINGLEVALUE('Provenance',$,IFCLABEL('Representative model; manually mapped evidence'),$);
#306=IFCPROPERTYSINGLEVALUE('Reference',$,IFCLABEL('column-2-3'),$);
#307=IFCPROPERTYSINGLEVALUE('GridReference',$,IFCLABEL('C4'),$);
#308=IFCPROPERTYSINGLEVALUE('Discipline',$,IFCLABEL('Structural'),$);
#309=IFCCOLUMN('30pnosHLrJ0PQSkrpIAVO7',$,'Column D1',$,$,$,#319,$,$);
#310=IFCCARTESIANPOINTLIST3D(((46.799999999999997,0.80000000000000004,0.),(47.199999999999996,0.80000000000000004,0.),(47.199999999999996,1.2000000000000002,0.),(46.799999999999997,1.2000000000000002,0.),(46.799999999999997,0.80000000000000004,7.5),(47.199999999999996,0.80000000000000004,7.5),(47.199999999999996,1.2000000000000002,7.5),(46.799999999999997,1.2000000000000002,7.5)));
#311=IFCINDEXEDPOLYGONALFACE((1,4,3,2));
#312=IFCINDEXEDPOLYGONALFACE((5,6,7,8));
#313=IFCINDEXEDPOLYGONALFACE((1,2,6,5));
#314=IFCINDEXEDPOLYGONALFACE((2,3,7,6));
#315=IFCINDEXEDPOLYGONALFACE((3,4,8,7));
#316=IFCINDEXEDPOLYGONALFACE((4,1,5,8));
#317=IFCPOLYGONALFACESET(#310,$,(#311,#312,#313,#314,#315,#316),$);
#318=IFCSHAPEREPRESENTATION(#11,'Body','Tessellation',(#317));
#319=IFCPRODUCTDEFINITIONSHAPE($,$,(#318));
#320=IFCPROPERTYSET('1CGUPsix9DpgIJn6QTX2JT',$,'Fieldlink_Provenance',$,(#322,#323,#324,#325));
#321=IFCRELDEFINESBYPROPERTIES('0QEN_t8ZD0VO3nZ8kuB6o2',$,$,$,(#309),#320);
#322=IFCPROPERTYSINGLEVALUE('Provenance',$,IFCLABEL('Representative model; manually mapped evidence'),$);
#323=IFCPROPERTYSINGLEVALUE('Reference',$,IFCLABEL('column-3-0'),$);
#324=IFCPROPERTYSINGLEVALUE('GridReference',$,IFCLABEL('D1'),$);
#325=IFCPROPERTYSINGLEVALUE('Discipline',$,IFCLABEL('Structural'),$);
#326=IFCCOLUMN('2Gbda50sHQQgPzLBIq6rE5',$,'Column D2',$,$,$,#336,$,$);
#327=IFCCARTESIANPOINTLIST3D(((46.799999999999997,10.800000000000001,0.),(47.199999999999996,10.800000000000001,0.),(47.199999999999996,11.200000000000001,0.),(46.799999999999997,11.200000000000001,0.),(46.799999999999997,10.800000000000001,7.5),(47.199999999999996,10.800000000000001,7.5),(47.199999999999996,11.200000000000001,7.5),(46.799999999999997,11.200000000000001,7.5)));
#328=IFCINDEXEDPOLYGONALFACE((1,4,3,2));
#329=IFCINDEXEDPOLYGONALFACE((5,6,7,8));
#330=IFCINDEXEDPOLYGONALFACE((1,2,6,5));
#331=IFCINDEXEDPOLYGONALFACE((2,3,7,6));
#332=IFCINDEXEDPOLYGONALFACE((3,4,8,7));
#333=IFCINDEXEDPOLYGONALFACE((4,1,5,8));
#334=IFCPOLYGONALFACESET(#327,$,(#328,#329,#330,#331,#332,#333),$);
#335=IFCSHAPEREPRESENTATION(#11,'Body','Tessellation',(#334));
#336=IFCPRODUCTDEFINITIONSHAPE($,$,(#335));
#337=IFCPROPERTYSET('3NE6PtQ6P0zfiMHu_ZICC3',$,'Fieldlink_Provenance',$,(#339,#340,#341,#342));
#338=IFCRELDEFINESBYPROPERTIES('18K3iC3Vj5tx2g1gC5vVVV',$,$,$,(#326),#337);
#339=IFCPROPERTYSINGLEVALUE('Provenance',$,IFCLABEL('Representative model; manually mapped evidence'),$);
#340=IFCPROPERTYSINGLEVALUE('Reference',$,IFCLABEL('column-3-1'),$);
#341=IFCPROPERTYSINGLEVALUE('GridReference',$,IFCLABEL('D2'),$);
#342=IFCPROPERTYSINGLEVALUE('Discipline',$,IFCLABEL('Structural'),$);
#343=IFCCOLUMN('2stu8QQ9PRiPeypFCMOeW9',$,'Column D3',$,$,$,#353,$,$);
#344=IFCCARTESIANPOINTLIST3D(((46.799999999999997,20.800000000000001,0.),(47.199999999999996,20.800000000000001,0.),(47.199999999999996,21.199999999999999,0.),(46.799999999999997,21.199999999999999,0.),(46.799999999999997,20.800000000000001,7.5),(47.199999999999996,20.800000000000001,7.5),(47.199999999999996,21.199999999999999,7.5),(46.799999999999997,21.199999999999999,7.5)));
#345=IFCINDEXEDPOLYGONALFACE((1,4,3,2));
#346=IFCINDEXEDPOLYGONALFACE((5,6,7,8));
#347=IFCINDEXEDPOLYGONALFACE((1,2,6,5));
#348=IFCINDEXEDPOLYGONALFACE((2,3,7,6));
#349=IFCINDEXEDPOLYGONALFACE((3,4,8,7));
#350=IFCINDEXEDPOLYGONALFACE((4,1,5,8));
#351=IFCPOLYGONALFACESET(#344,$,(#345,#346,#347,#348,#349,#350),$);
#352=IFCSHAPEREPRESENTATION(#11,'Body','Tessellation',(#351));
#353=IFCPRODUCTDEFINITIONSHAPE($,$,(#352));
#354=IFCPROPERTYSET('1aSvdAcBn3PAfqPDJJ6v__',$,'Fieldlink_Provenance',$,(#356,#357,#358,#359));
#355=IFCRELDEFINESBYPROPERTIES('2_dUZxFRnBgxPaxXWUw9Zv',$,$,$,(#343),#354);
#356=IFCPROPERTYSINGLEVALUE('Provenance',$,IFCLABEL('Representative model; manually mapped evidence'),$);
#357=IFCPROPERTYSINGLEVALUE('Reference',$,IFCLABEL('column-3-2'),$);
#358=IFCPROPERTYSINGLEVALUE('GridReference',$,IFCLABEL('D3'),$);
#359=IFCPROPERTYSINGLEVALUE('Discipline',$,IFCLABEL('Structural'),$);
#360=IFCCOLUMN('0wvd2MfYbNPAzgQbRig2FR',$,'Column D4',$,$,$,#370,$,$);
#361=IFCCARTESIANPOINTLIST3D(((46.799999999999997,30.800000000000001,0.),(47.199999999999996,30.800000000000001,0.),(47.199999999999996,31.199999999999999,0.),(46.799999999999997,31.199999999999999,0.),(46.799999999999997,30.800000000000001,7.5),(47.199999999999996,30.800000000000001,7.5),(47.199999999999996,31.199999999999999,7.5),(46.799999999999997,31.199999999999999,7.5)));
#362=IFCINDEXEDPOLYGONALFACE((1,4,3,2));
#363=IFCINDEXEDPOLYGONALFACE((5,6,7,8));
#364=IFCINDEXEDPOLYGONALFACE((1,2,6,5));
#365=IFCINDEXEDPOLYGONALFACE((2,3,7,6));
#366=IFCINDEXEDPOLYGONALFACE((3,4,8,7));
#367=IFCINDEXEDPOLYGONALFACE((4,1,5,8));
#368=IFCPOLYGONALFACESET(#361,$,(#362,#363,#364,#365,#366,#367),$);
#369=IFCSHAPEREPRESENTATION(#11,'Body','Tessellation',(#368));
#370=IFCPRODUCTDEFINITIONSHAPE($,$,(#369));
#371=IFCPROPERTYSET('2tWWo3IM1CVOHkRw5RjIwn',$,'Fieldlink_Provenance',$,(#373,#374,#375,#376));
#372=IFCRELDEFINESBYPROPERTIES('2n$BH$n6X5RBFH7Dd9HJjG',$,$,$,(#360),#371);
#373=IFCPROPERTYSINGLEVALUE('Provenance',$,IFCLABEL('Representative model; manually mapped evidence'),$);
#374=IFCPROPERTYSINGLEVALUE('Reference',$,IFCLABEL('column-3-3'),$);
#375=IFCPROPERTYSINGLEVALUE('GridReference',$,IFCLABEL('D4'),$);
#376=IFCPROPERTYSINGLEVALUE('Discipline',$,IFCLABEL('Structural'),$);
#377=IFCBUILDINGELEMENTPROXY('3SmL_fgE5IBvr1Hj63Gmyj',$,'EQ-01 \X2\00B7\X0\ Process equipment',$,$,$,#387,$,$);
#378=IFCCARTESIANPOINTLIST3D(((4.,3.,0.),(8.5,3.,0.),(8.5,6.,0.),(4.,6.,0.),(4.,3.,2.7999999999999998),(8.5,3.,2.7999999999999998),(8.5,6.,2.7999999999999998),(4.,6.,2.7999999999999998)));
#379=IFCINDEXEDPOLYGONALFACE((1,4,3,2));
#380=IFCINDEXEDPOLYGONALFACE((5,6,7,8));
#381=IFCINDEXEDPOLYGONALFACE((1,2,6,5));
#382=IFCINDEXEDPOLYGONALFACE((2,3,7,6));
#383=IFCINDEXEDPOLYGONALFACE((3,4,8,7));
#384=IFCINDEXEDPOLYGONALFACE((4,1,5,8));
#385=IFCPOLYGONALFACESET(#378,$,(#379,#380,#381,#382,#383,#384),$);
#386=IFCSHAPEREPRESENTATION(#11,'Body','Tessellation',(#385));
#387=IFCPRODUCTDEFINITIONSHAPE($,$,(#386));
#388=IFCRELCONTAINEDINSPATIALSTRUCTURE('0Vq1WSLM9BW8B2citorymu',$,$,$,(#463,#412,#429,#377,#446,#395),#36);
#389=IFCPROPERTYSET('0Js3n8QmXEveY0Yt7BjPhN',$,'Fieldlink_Provenance',$,(#391,#392,#393,#394));
#390=IFCRELDEFINESBYPROPERTIES('18yISImzf1uRPFlcaaFiMJ',$,$,$,(#377),#389);
#391=IFCPROPERTYSINGLEVALUE('Provenance',$,IFCLABEL('Representative model; manually mapped evidence'),$);
#392=IFCPROPERTYSINGLEVALUE('Reference',$,IFCLABEL('machine-1'),$);
#393=IFCPROPERTYSINGLEVALUE('GridReference',$,IFCLABEL('B2'),$);
#394=IFCPROPERTYSINGLEVALUE('Discipline',$,IFCLABEL('General'),$);
#395=IFCBUILDINGELEMENTPROXY('1owJq9E9XNERxhHIGrr9Ay',$,'EQ-02 \X2\00B7\X0\ Process equipment',$,$,$,#405,$,$);
#396=IFCCARTESIANPOINTLIST3D(((12.,3.,0.),(16.5,3.,0.),(16.5,6.,0.),(12.,6.,0.),(12.,3.,2.7999999999999998),(16.5,3.,2.7999999999999998),(16.5,6.,2.7999999999999998),(12.,6.,2.7999999999999998)));
#397=IFCINDEXEDPOLYGONALFACE((1,4,3,2));
#398=IFCINDEXEDPOLYGONALFACE((5,6,7,8));
#399=IFCINDEXEDPOLYGONALFACE((1,2,6,5));
#400=IFCINDEXEDPOLYGONALFACE((2,3,7,6));
#401=IFCINDEXEDPOLYGONALFACE((3,4,8,7));
#402=IFCINDEXEDPOLYGONALFACE((4,1,5,8));
#403=IFCPOLYGONALFACESET(#396,$,(#397,#398,#399,#400,#401,#402),$);
#404=IFCSHAPEREPRESENTATION(#11,'Body','Tessellation',(#403));
#405=IFCPRODUCTDEFINITIONSHAPE($,$,(#404));
#406=IFCPROPERTYSET('1HyG7wH41B9wAL7eu3TJL0',$,'Fieldlink_Provenance',$,(#408,#409,#410,#411));
#407=IFCRELDEFINESBYPROPERTIES('3vwuWZP_rC7wIh8gy7uq5Y',$,$,$,(#395),#406);
#408=IFCPROPERTYSINGLEVALUE('Provenance',$,IFCLABEL('Representative model; manually mapped evidence'),$);
#409=IFCPROPERTYSINGLEVALUE('Reference',$,IFCLABEL('machine-2'),$);
#410=IFCPROPERTYSINGLEVALUE('GridReference',$,IFCLABEL('B2'),$);
#411=IFCPROPERTYSINGLEVALUE('Discipline',$,IFCLABEL('General'),$);
#412=IFCBUILDINGELEMENTPROXY('2rvumdZ9PJ1hzWTpsvJdmm',$,'EQ-03 \X2\00B7\X0\ Process equipment',$,$,$,#422,$,$);
#413=IFCCARTESIANPOINTLIST3D(((20.,3.,0.),(24.5,3.,0.),(24.5,6.,0.),(20.,6.,0.),(20.,3.,2.7999999999999998),(24.5,3.,2.7999999999999998),(24.5,6.,2.7999999999999998),(20.,6.,2.7999999999999998)));
#414=IFCINDEXEDPOLYGONALFACE((1,4,3,2));
#415=IFCINDEXEDPOLYGONALFACE((5,6,7,8));
#416=IFCINDEXEDPOLYGONALFACE((1,2,6,5));
#417=IFCINDEXEDPOLYGONALFACE((2,3,7,6));
#418=IFCINDEXEDPOLYGONALFACE((3,4,8,7));
#419=IFCINDEXEDPOLYGONALFACE((4,1,5,8));
#420=IFCPOLYGONALFACESET(#413,$,(#414,#415,#416,#417,#418,#419),$);
#421=IFCSHAPEREPRESENTATION(#11,'Body','Tessellation',(#420));
#422=IFCPRODUCTDEFINITIONSHAPE($,$,(#421));
#423=IFCPROPERTYSET('3az0HLL8fAbBbXGSOUaOKW',$,'Fieldlink_Provenance',$,(#425,#426,#427,#428));
#424=IFCRELDEFINESBYPROPERTIES('3PT5tR3MzAuQmCOmjSxrJ6',$,$,$,(#412),#423);
#425=IFCPROPERTYSINGLEVALUE('Provenance',$,IFCLABEL('Representative model; manually mapped evidence'),$);
#426=IFCPROPERTYSINGLEVALUE('Reference',$,IFCLABEL('machine-3'),$);
#427=IFCPROPERTYSINGLEVALUE('GridReference',$,IFCLABEL('B2'),$);
#428=IFCPROPERTYSINGLEVALUE('Discipline',$,IFCLABEL('General'),$);
#429=IFCBUILDINGELEMENTPROXY('0vxPj1oMDJsxpWa6nbYXb5',$,'EQ-04 \X2\00B7\X0\ Process equipment',$,$,$,#439,$,$);
#430=IFCCARTESIANPOINTLIST3D(((4.,11.,0.),(8.5,11.,0.),(8.5,14.,0.),(4.,14.,0.),(4.,11.,2.7999999999999998),(8.5,11.,2.7999999999999998),(8.5,14.,2.7999999999999998),(4.,14.,2.7999999999999998)));
#431=IFCINDEXEDPOLYGONALFACE((1,4,3,2));
#432=IFCINDEXEDPOLYGONALFACE((5,6,7,8));
#433=IFCINDEXEDPOLYGONALFACE((1,2,6,5));
#434=IFCINDEXEDPOLYGONALFACE((2,3,7,6));
#435=IFCINDEXEDPOLYGONALFACE((3,4,8,7));
#436=IFCINDEXEDPOLYGONALFACE((4,1,5,8));
#437=IFCPOLYGONALFACESET(#430,$,(#431,#432,#433,#434,#435,#436),$);
#438=IFCSHAPEREPRESENTATION(#11,'Body','Tessellation',(#437));
#439=IFCPRODUCTDEFINITIONSHAPE($,$,(#438));
#440=IFCPROPERTYSET('1GDAkQvGPFoQdsaIWSX1VF',$,'Fieldlink_Provenance',$,(#442,#443,#444,#445));
#441=IFCRELDEFINESBYPROPERTIES('0oCJ42sjLDWBNDpSWqze4n',$,$,$,(#429),#440);
#442=IFCPROPERTYSINGLEVALUE('Provenance',$,IFCLABEL('Representative model; manually mapped evidence'),$);
#443=IFCPROPERTYSINGLEVALUE('Reference',$,IFCLABEL('machine-4'),$);
#444=IFCPROPERTYSINGLEVALUE('GridReference',$,IFCLABEL('B2'),$);
#445=IFCPROPERTYSINGLEVALUE('Discipline',$,IFCLABEL('General'),$);
#446=IFCBUILDINGELEMENTPROXY('17hUF9NjzNzR3$fnPHRhwE',$,'EQ-05 \X2\00B7\X0\ Process equipment',$,$,$,#456,$,$);
#447=IFCCARTESIANPOINTLIST3D(((12.,11.,0.),(16.5,11.,0.),(16.5,14.,0.),(12.,14.,0.),(12.,11.,2.7999999999999998),(16.5,11.,2.7999999999999998),(16.5,14.,2.7999999999999998),(12.,14.,2.7999999999999998)));
#448=IFCINDEXEDPOLYGONALFACE((1,4,3,2));
#449=IFCINDEXEDPOLYGONALFACE((5,6,7,8));
#450=IFCINDEXEDPOLYGONALFACE((1,2,6,5));
#451=IFCINDEXEDPOLYGONALFACE((2,3,7,6));
#452=IFCINDEXEDPOLYGONALFACE((3,4,8,7));
#453=IFCINDEXEDPOLYGONALFACE((4,1,5,8));
#454=IFCPOLYGONALFACESET(#447,$,(#448,#449,#450,#451,#452,#453),$);
#455=IFCSHAPEREPRESENTATION(#11,'Body','Tessellation',(#454));
#456=IFCPRODUCTDEFINITIONSHAPE($,$,(#455));
#457=IFCPROPERTYSET('3h5x9TcgT4BxoHpXaDf4HN',$,'Fieldlink_Provenance',$,(#459,#460,#461,#462));
#458=IFCRELDEFINESBYPROPERTIES('1E$hwSfDD10eEd91fj0Ck$',$,$,$,(#446),#457);
#459=IFCPROPERTYSINGLEVALUE('Provenance',$,IFCLABEL('Representative model; manually mapped evidence'),$);
#460=IFCPROPERTYSINGLEVALUE('Reference',$,IFCLABEL('machine-5'),$);
#461=IFCPROPERTYSINGLEVALUE('GridReference',$,IFCLABEL('B2'),$);
#462=IFCPROPERTYSINGLEVALUE('Discipline',$,IFCLABEL('General'),$);
#463=IFCBUILDINGELEMENTPROXY('0VFI29L1vSyeh7dRBNkcLY',$,'EQ-06 \X2\00B7\X0\ Process equipment',$,$,$,#473,$,$);
#464=IFCCARTESIANPOINTLIST3D(((20.,11.,0.),(24.5,11.,0.),(24.5,14.,0.),(20.,14.,0.),(20.,11.,2.7999999999999998),(24.5,11.,2.7999999999999998),(24.5,14.,2.7999999999999998),(20.,14.,2.7999999999999998)));
#465=IFCINDEXEDPOLYGONALFACE((1,4,3,2));
#466=IFCINDEXEDPOLYGONALFACE((5,6,7,8));
#467=IFCINDEXEDPOLYGONALFACE((1,2,6,5));
#468=IFCINDEXEDPOLYGONALFACE((2,3,7,6));
#469=IFCINDEXEDPOLYGONALFACE((3,4,8,7));
#470=IFCINDEXEDPOLYGONALFACE((4,1,5,8));
#471=IFCPOLYGONALFACESET(#464,$,(#465,#466,#467,#468,#469,#470),$);
#472=IFCSHAPEREPRESENTATION(#11,'Body','Tessellation',(#471));
#473=IFCPRODUCTDEFINITIONSHAPE($,$,(#472));
#474=IFCPROPERTYSET('0UAXQyVevC0enJJZHbjqcu',$,'Fieldlink_Provenance',$,(#476,#477,#478,#479));
#475=IFCRELDEFINESBYPROPERTIES('0QSJgfEqT8xBMofPRPNFDD',$,$,$,(#463),#474);
#476=IFCPROPERTYSINGLEVALUE('Provenance',$,IFCLABEL('Representative model; manually mapped evidence'),$);
#477=IFCPROPERTYSINGLEVALUE('Reference',$,IFCLABEL('machine-6'),$);
#478=IFCPROPERTYSINGLEVALUE('GridReference',$,IFCLABEL('B2'),$);
#479=IFCPROPERTYSINGLEVALUE('Discipline',$,IFCLABEL('General'),$);
#480=IFCBUILDINGELEMENTPROXY('1oeg1NI$rKQPE_BHOI6xa_',$,'ST-01 \X2\00B7\X0\ Storage rack',$,$,$,#490,$,$);
#481=IFCCARTESIANPOINTLIST3D(((31.,3.,0.),(37.,3.,0.),(37.,5.2000000000000002,0.),(31.,5.2000000000000002,0.),(31.,3.,4.0999999999999996),(37.,3.,4.0999999999999996),(37.,5.2000000000000002,4.0999999999999996),(31.,5.2000000000000002,4.0999999999999996)));
#482=IFCINDEXEDPOLYGONALFACE((1,4,3,2));
#483=IFCINDEXEDPOLYGONALFACE((5,6,7,8));
#484=IFCINDEXEDPOLYGONALFACE((1,2,6,5));
#485=IFCINDEXEDPOLYGONALFACE((2,3,7,6));
#486=IFCINDEXEDPOLYGONALFACE((3,4,8,7));
#487=IFCINDEXEDPOLYGONALFACE((4,1,5,8));
#488=IFCPOLYGONALFACESET(#481,$,(#482,#483,#484,#485,#486,#487),$);
#489=IFCSHAPEREPRESENTATION(#11,'Body','Tessellation',(#488));
#490=IFCPRODUCTDEFINITIONSHAPE($,$,(#489));
#491=IFCRELCONTAINEDINSPATIALSTRUCTURE('0QSbdxjSr3K82LLbk7nbUK',$,$,$,(#515,#480,#532,#498),#54);
#492=IFCPROPERTYSET('1uZbFvhhH0JhJ9wXOraZzl',$,'Fieldlink_Provenance',$,(#494,#495,#496,#497));
#493=IFCRELDEFINESBYPROPERTIES('1IV80DkPj8cwklPfMcpFql',$,$,$,(#480),#492);
#494=IFCPROPERTYSINGLEVALUE('Provenance',$,IFCLABEL('Representative model; manually mapped evidence'),$);
#495=IFCPROPERTYSINGLEVALUE('Reference',$,IFCLABEL('rack-1'),$);
#496=IFCPROPERTYSINGLEVALUE('GridReference',$,IFCLABEL('D2'),$);
#497=IFCPROPERTYSINGLEVALUE('Discipline',$,IFCLABEL('General'),$);
#498=IFCBUILDINGELEMENTPROXY('0OWz$hotHSGxdqnbxuLnoB',$,'ST-02 \X2\00B7\X0\ Storage rack',$,$,$,#508,$,$);
#499=IFCCARTESIANPOINTLIST3D(((38.,3.,0.),(44.,3.,0.),(44.,5.2000000000000002,0.),(38.,5.2000000000000002,0.),(38.,3.,4.0999999999999996),(44.,3.,4.0999999999999996),(44.,5.2000000000000002,4.0999999999999996),(38.,5.2000000000000002,4.0999999999999996)));
#500=IFCINDEXEDPOLYGONALFACE((1,4,3,2));
#501=IFCINDEXEDPOLYGONALFACE((5,6,7,8));
#502=IFCINDEXEDPOLYGONALFACE((1,2,6,5));
#503=IFCINDEXEDPOLYGONALFACE((2,3,7,6));
#504=IFCINDEXEDPOLYGONALFACE((3,4,8,7));
#505=IFCINDEXEDPOLYGONALFACE((4,1,5,8));
#506=IFCPOLYGONALFACESET(#499,$,(#500,#501,#502,#503,#504,#505),$);
#507=IFCSHAPEREPRESENTATION(#11,'Body','Tessellation',(#506));
#508=IFCPRODUCTDEFINITIONSHAPE($,$,(#507));
#509=IFCPROPERTYSET('1cCkT6$KD7xRD_BPern7x5',$,'Fieldlink_Provenance',$,(#511,#512,#513,#514));
#510=IFCRELDEFINESBYPROPERTIES('04p6ULcufB0PPCNA6jykB2',$,$,$,(#498),#509);
#511=IFCPROPERTYSINGLEVALUE('Provenance',$,IFCLABEL('Representative model; manually mapped evidence'),$);
#512=IFCPROPERTYSINGLEVALUE('Reference',$,IFCLABEL('rack-2'),$);
#513=IFCPROPERTYSINGLEVALUE('GridReference',$,IFCLABEL('D2'),$);
#514=IFCPROPERTYSINGLEVALUE('Discipline',$,IFCLABEL('General'),$);
#515=IFCBUILDINGELEMENTPROXY('0MPhyT7TDMDAKnMXIFEukY',$,'ST-03 \X2\00B7\X0\ Storage rack',$,$,$,#525,$,$);
#516=IFCCARTESIANPOINTLIST3D(((31.,11.,0.),(37.,11.,0.),(37.,13.199999999999999,0.),(31.,13.199999999999999,0.),(31.,11.,4.0999999999999996),(37.,11.,4.0999999999999996),(37.,13.199999999999999,4.0999999999999996),(31.,13.199999999999999,4.0999999999999996)));
#517=IFCINDEXEDPOLYGONALFACE((1,4,3,2));
#518=IFCINDEXEDPOLYGONALFACE((5,6,7,8));
#519=IFCINDEXEDPOLYGONALFACE((1,2,6,5));
#520=IFCINDEXEDPOLYGONALFACE((2,3,7,6));
#521=IFCINDEXEDPOLYGONALFACE((3,4,8,7));
#522=IFCINDEXEDPOLYGONALFACE((4,1,5,8));
#523=IFCPOLYGONALFACESET(#516,$,(#517,#518,#519,#520,#521,#522),$);
#524=IFCSHAPEREPRESENTATION(#11,'Body','Tessellation',(#523));
#525=IFCPRODUCTDEFINITIONSHAPE($,$,(#524));
#526=IFCPROPERTYSET('2_1Yw8yrv4nBjcE6EGH8_j',$,'Fieldlink_Provenance',$,(#528,#529,#530,#531));
#527=IFCRELDEFINESBYPROPERTIES('2PIULN8Tj9KBmR8lYwnuvV',$,$,$,(#515),#526);
#528=IFCPROPERTYSINGLEVALUE('Provenance',$,IFCLABEL('Representative model; manually mapped evidence'),$);
#529=IFCPROPERTYSINGLEVALUE('Reference',$,IFCLABEL('rack-3'),$);
#530=IFCPROPERTYSINGLEVALUE('GridReference',$,IFCLABEL('D2'),$);
#531=IFCPROPERTYSINGLEVALUE('Discipline',$,IFCLABEL('General'),$);
#532=IFCBUILDINGELEMENTPROXY('0V8O0TIEPKmuYEBuS03PcX',$,'ST-04 \X2\00B7\X0\ Storage rack',$,$,$,#542,$,$);
#533=IFCCARTESIANPOINTLIST3D(((38.,11.,0.),(44.,11.,0.),(44.,13.199999999999999,0.),(38.,13.199999999999999,0.),(38.,11.,4.0999999999999996),(44.,11.,4.0999999999999996),(44.,13.199999999999999,4.0999999999999996),(38.,13.199999999999999,4.0999999999999996)));
#534=IFCINDEXEDPOLYGONALFACE((1,4,3,2));
#535=IFCINDEXEDPOLYGONALFACE((5,6,7,8));
#536=IFCINDEXEDPOLYGONALFACE((1,2,6,5));
#537=IFCINDEXEDPOLYGONALFACE((2,3,7,6));
#538=IFCINDEXEDPOLYGONALFACE((3,4,8,7));
#539=IFCINDEXEDPOLYGONALFACE((4,1,5,8));
#540=IFCPOLYGONALFACESET(#533,$,(#534,#535,#536,#537,#538,#539),$);
#541=IFCSHAPEREPRESENTATION(#11,'Body','Tessellation',(#540));
#542=IFCPRODUCTDEFINITIONSHAPE($,$,(#541));
#543=IFCPROPERTYSET('3iTmVqytX8IQ_rSVouIYxl',$,'Fieldlink_Provenance',$,(#545,#546,#547,#548));
#544=IFCRELDEFINESBYPROPERTIES('0SJwkL5fj2dQfkF4ypMjWg',$,$,$,(#532),#543);
#545=IFCPROPERTYSINGLEVALUE('Provenance',$,IFCLABEL('Representative model; manually mapped evidence'),$);
#546=IFCPROPERTYSINGLEVALUE('Reference',$,IFCLABEL('rack-4'),$);
#547=IFCPROPERTYSINGLEVALUE('GridReference',$,IFCLABEL('D2'),$);
#548=IFCPROPERTYSINGLEVALUE('Discipline',$,IFCLABEL('General'),$);
#549=IFCBUILDINGELEMENTPROXY('1w4QkBoUjK3AL_kQfen$M$',$,'AS-01 \X2\00B7\X0\ Assembly station',$,$,$,#559,$,$);
#550=IFCCARTESIANPOINTLIST3D(((4.,24.,0.),(9.,24.,0.),(9.,27.,0.),(4.,27.,0.),(4.,24.,1.2),(9.,24.,1.2),(9.,27.,1.2),(4.,27.,1.2)));
#551=IFCINDEXEDPOLYGONALFACE((1,4,3,2));
#552=IFCINDEXEDPOLYGONALFACE((5,6,7,8));
#553=IFCINDEXEDPOLYGONALFACE((1,2,6,5));
#554=IFCINDEXEDPOLYGONALFACE((2,3,7,6));
#555=IFCINDEXEDPOLYGONALFACE((3,4,8,7));
#556=IFCINDEXEDPOLYGONALFACE((4,1,5,8));
#557=IFCPOLYGONALFACESET(#550,$,(#551,#552,#553,#554,#555,#556),$);
#558=IFCSHAPEREPRESENTATION(#11,'Body','Tessellation',(#557));
#559=IFCPRODUCTDEFINITIONSHAPE($,$,(#558));
#560=IFCRELCONTAINEDINSPATIALSTRUCTURE('0nn$ISIj9FwO9w0RHL42s7',$,$,$,(#567,#584,#549),#71);
#561=IFCPROPERTYSET('0ebu1LSqj23RAdK78HmsGK',$,'Fieldlink_Provenance',$,(#563,#564,#565,#566));
#562=IFCRELDEFINESBYPROPERTIES('323Y8zjcL5HPSLxnDcCdUy',$,$,$,(#549),#561);
#563=IFCPROPERTYSINGLEVALUE('Provenance',$,IFCLABEL('Representative model; manually mapped evidence'),$);
#564=IFCPROPERTYSINGLEVALUE('Reference',$,IFCLABEL('bench-1'),$);
#565=IFCPROPERTYSINGLEVALUE('GridReference',$,IFCLABEL('B3'),$);
#566=IFCPROPERTYSINGLEVALUE('Discipline',$,IFCLABEL('General'),$);
#567=IFCBUILDINGELEMENTPROXY('0htXt6mELPJfOERVAJPmum',$,'AS-02 \X2\00B7\X0\ Assembly station',$,$,$,#577,$,$);
#568=IFCCARTESIANPOINTLIST3D(((12.,24.,0.),(17.,24.,0.),(17.,27.,0.),(12.,27.,0.),(12.,24.,1.2),(17.,24.,1.2),(17.,27.,1.2),(12.,27.,1.2)));
#569=IFCINDEXEDPOLYGONALFACE((1,4,3,2));
#570=IFCINDEXEDPOLYGONALFACE((5,6,7,8));
#571=IFCINDEXEDPOLYGONALFACE((1,2,6,5));
#572=IFCINDEXEDPOLYGONALFACE((2,3,7,6));
#573=IFCINDEXEDPOLYGONALFACE((3,4,8,7));
#574=IFCINDEXEDPOLYGONALFACE((4,1,5,8));
#575=IFCPOLYGONALFACESET(#568,$,(#569,#570,#571,#572,#573,#574),$);
#576=IFCSHAPEREPRESENTATION(#11,'Body','Tessellation',(#575));
#577=IFCPRODUCTDEFINITIONSHAPE($,$,(#576));
#578=IFCPROPERTYSET('2XMqsYvvz9vPhcXlwA_AfO',$,'Fieldlink_Provenance',$,(#580,#581,#582,#583));
#579=IFCRELDEFINESBYPROPERTIES('05u7o_kUD4Yvkx42XUxnFL',$,$,$,(#567),#578);
#580=IFCPROPERTYSINGLEVALUE('Provenance',$,IFCLABEL('Representative model; manually mapped evidence'),$);
#581=IFCPROPERTYSINGLEVALUE('Reference',$,IFCLABEL('bench-2'),$);
#582=IFCPROPERTYSINGLEVALUE('GridReference',$,IFCLABEL('B3'),$);
#583=IFCPROPERTYSINGLEVALUE('Discipline',$,IFCLABEL('General'),$);
#584=IFCBUILDINGELEMENTPROXY('2m8rUcOFzKxvdwgKFUAWIO',$,'AS-03 \X2\00B7\X0\ Assembly station',$,$,$,#594,$,$);
#585=IFCCARTESIANPOINTLIST3D(((20.,24.,0.),(25.,24.,0.),(25.,27.,0.),(20.,27.,0.),(20.,24.,1.2),(25.,24.,1.2),(25.,27.,1.2),(20.,27.,1.2)));
#586=IFCINDEXEDPOLYGONALFACE((1,4,3,2));
#587=IFCINDEXEDPOLYGONALFACE((5,6,7,8));
#588=IFCINDEXEDPOLYGONALFACE((1,2,6,5));
#589=IFCINDEXEDPOLYGONALFACE((2,3,7,6));
#590=IFCINDEXEDPOLYGONALFACE((3,4,8,7));
#591=IFCINDEXEDPOLYGONALFACE((4,1,5,8));
#592=IFCPOLYGONALFACESET(#585,$,(#586,#587,#588,#589,#590,#591),$);
#593=IFCSHAPEREPRESENTATION(#11,'Body','Tessellation',(#592));
#594=IFCPRODUCTDEFINITIONSHAPE($,$,(#593));
#595=IFCPROPERTYSET('3fV0LiD256OhzE8bRG5g7q',$,'Fieldlink_Provenance',$,(#597,#598,#599,#600));
#596=IFCRELDEFINESBYPROPERTIES('0Cfh6R6sn8_xKk5IbiUCbY',$,$,$,(#584),#595);
#597=IFCPROPERTYSINGLEVALUE('Provenance',$,IFCLABEL('Representative model; manually mapped evidence'),$);
#598=IFCPROPERTYSINGLEVALUE('Reference',$,IFCLABEL('bench-3'),$);
#599=IFCPROPERTYSINGLEVALUE('GridReference',$,IFCLABEL('B3'),$);
#600=IFCPROPERTYSINGLEVALUE('Discipline',$,IFCLABEL('General'),$);
#601=IFCBUILDINGELEMENTPROXY('0hHY_KXwvSUOGvDq1fYY$1',$,'LD-01 \X2\00B7\X0\ Staging area',$,$,$,#611,$,$);
#602=IFCCARTESIANPOINTLIST3D(((34.,24.,0.),(42.,24.,0.),(42.,28.,0.),(34.,28.,0.),(34.,24.,0.80000000000000004),(42.,24.,0.80000000000000004),(42.,28.,0.80000000000000004),(34.,28.,0.80000000000000004)));
#603=IFCINDEXEDPOLYGONALFACE((1,4,3,2));
#604=IFCINDEXEDPOLYGONALFACE((5,6,7,8));
#605=IFCINDEXEDPOLYGONALFACE((1,2,6,5));
#606=IFCINDEXEDPOLYGONALFACE((2,3,7,6));
#607=IFCINDEXEDPOLYGONALFACE((3,4,8,7));
#608=IFCINDEXEDPOLYGONALFACE((4,1,5,8));
#609=IFCPOLYGONALFACESET(#602,$,(#603,#604,#605,#606,#607,#608),$);
#610=IFCSHAPEREPRESENTATION(#11,'Body','Tessellation',(#609));
#611=IFCPRODUCTDEFINITIONSHAPE($,$,(#610));
#612=IFCRELCONTAINEDINSPATIALSTRUCTURE('2Mj_EHTIT1O8AHvYSf$CzU',$,$,$,(#601),#88);
#613=IFCPROPERTYSET('3U7dRtZR12MPYVCAh5xbI$',$,'Fieldlink_Provenance',$,(#615,#616,#617,#618));
#614=IFCRELDEFINESBYPROPERTIES('0rU2Dghlz9CgJpdT2usCXl',$,$,$,(#601),#613);
#615=IFCPROPERTYSINGLEVALUE('Provenance',$,IFCLABEL('Representative model; manually mapped evidence'),$);
#616=IFCPROPERTYSINGLEVALUE('Reference',$,IFCLABEL('loading-stage'),$);
#617=IFCPROPERTYSINGLEVALUE('GridReference',$,IFCLABEL('D3'),$);
#618=IFCPROPERTYSINGLEVALUE('Discipline',$,IFCLABEL('General'),$);
#619=IFCROOF('1xVG2TQhHRtBIcdp27k8l1',$,'Roof envelope',$,$,$,#629,$,$);
#620=IFCCARTESIANPOINTLIST3D(((0.,0.,7.5999999999999996),(48.,0.,7.5999999999999996),(48.,32.,7.5999999999999996),(0.,32.,7.5999999999999996),(0.,0.,7.8499999999999996),(48.,0.,7.8499999999999996),(48.,32.,7.8499999999999996),(0.,32.,7.8499999999999996)));
#621=IFCINDEXEDPOLYGONALFACE((1,4,3,2));
#622=IFCINDEXEDPOLYGONALFACE((5,6,7,8));
#623=IFCINDEXEDPOLYGONALFACE((1,2,6,5));
#624=IFCINDEXEDPOLYGONALFACE((2,3,7,6));
#625=IFCINDEXEDPOLYGONALFACE((3,4,8,7));
#626=IFCINDEXEDPOLYGONALFACE((4,1,5,8));
#627=IFCPOLYGONALFACESET(#620,$,(#621,#622,#623,#624,#625,#626),$);
#628=IFCSHAPEREPRESENTATION(#11,'Body','Tessellation',(#627));
#629=IFCPRODUCTDEFINITIONSHAPE($,$,(#628));
#630=IFCPROPERTYSET('2y$$tU17LEfe6BZngm7C3b',$,'Fieldlink_Provenance',$,(#632,#633,#634,#635));
#631=IFCRELDEFINESBYPROPERTIES('1odjnDrvL7kRU4b2D2FBeX',$,$,$,(#619),#630);
#632=IFCPROPERTYSINGLEVALUE('Provenance',$,IFCLABEL('Representative model; manually mapped evidence'),$);
#633=IFCPROPERTYSINGLEVALUE('Reference',$,IFCLABEL('roof'),$);
#634=IFCPROPERTYSINGLEVALUE('GridReference',$,IFCLABEL(''),$);
#635=IFCPROPERTYSINGLEVALUE('Discipline',$,IFCLABEL('General'),$);
#636=IFCWALL('1wt3BZki1QfwQLy4JKx1sQ',$,'North wall',$,$,$,#646,$,$);
#637=IFCCARTESIANPOINTLIST3D(((0.,31.800000000000001,0.),(48.,31.800000000000001,0.),(48.,32.,0.),(0.,32.,0.),(0.,31.800000000000001,7.5),(48.,31.800000000000001,7.5),(48.,32.,7.5),(0.,32.,7.5)));
#638=IFCINDEXEDPOLYGONALFACE((1,4,3,2));
#639=IFCINDEXEDPOLYGONALFACE((5,6,7,8));
#640=IFCINDEXEDPOLYGONALFACE((1,2,6,5));
#641=IFCINDEXEDPOLYGONALFACE((2,3,7,6));
#642=IFCINDEXEDPOLYGONALFACE((3,4,8,7));
#643=IFCINDEXEDPOLYGONALFACE((4,1,5,8));
#644=IFCPOLYGONALFACESET(#637,$,(#638,#639,#640,#641,#642,#643),$);
#645=IFCSHAPEREPRESENTATION(#11,'Body','Tessellation',(#644));
#646=IFCPRODUCTDEFINITIONSHAPE($,$,(#645));
#647=IFCPROPERTYSET('0Aba71p$PAou5scjMw7mUH',$,'Fieldlink_Provenance',$,(#649,#650,#651,#652));
#648=IFCRELDEFINESBYPROPERTIES('0NzJwDFGvAxRFuvA0uTFM3',$,$,$,(#636),#647);
#649=IFCPROPERTYSINGLEVALUE('Provenance',$,IFCLABEL('Representative model; manually mapped evidence'),$);
#650=IFCPROPERTYSINGLEVALUE('Reference',$,IFCLABEL('wall-north'),$);
#651=IFCPROPERTYSINGLEVALUE('GridReference',$,IFCLABEL(''),$);
#652=IFCPROPERTYSINGLEVALUE('Discipline',$,IFCLABEL('General'),$);
#653=IFCWALL('2HvvfZWPbGOhvEPegOMPGL',$,'West wall',$,$,$,#663,$,$);
#654=IFCCARTESIANPOINTLIST3D(((0.,0.,0.),(0.20000000000000001,0.,0.),(0.20000000000000001,32.,0.),(0.,32.,0.),(0.,0.,7.5),(0.20000000000000001,0.,7.5),(0.20000000000000001,32.,7.5),(0.,32.,7.5)));
#655=IFCINDEXEDPOLYGONALFACE((1,4,3,2));
#656=IFCINDEXEDPOLYGONALFACE((5,6,7,8));
#657=IFCINDEXEDPOLYGONALFACE((1,2,6,5));
#658=IFCINDEXEDPOLYGONALFACE((2,3,7,6));
#659=IFCINDEXEDPOLYGONALFACE((3,4,8,7));
#660=IFCINDEXEDPOLYGONALFACE((4,1,5,8));
#661=IFCPOLYGONALFACESET(#654,$,(#655,#656,#657,#658,#659,#660),$);
#662=IFCSHAPEREPRESENTATION(#11,'Body','Tessellation',(#661));
#663=IFCPRODUCTDEFINITIONSHAPE($,$,(#662));
#664=IFCPROPERTYSET('24ibeG5br2QfDWXNMdIVal',$,'Fieldlink_Provenance',$,(#666,#667,#668,#669));
#665=IFCRELDEFINESBYPROPERTIES('2lL$oJWtLEtA9KgiypUvr9',$,$,$,(#653),#664);
#666=IFCPROPERTYSINGLEVALUE('Provenance',$,IFCLABEL('Representative model; manually mapped evidence'),$);
#667=IFCPROPERTYSINGLEVALUE('Reference',$,IFCLABEL('wall-west'),$);
#668=IFCPROPERTYSINGLEVALUE('GridReference',$,IFCLABEL(''),$);
#669=IFCPROPERTYSINGLEVALUE('Discipline',$,IFCLABEL('General'),$);
#670=IFCCARTESIANPOINT((1.,-2.,0.));
#671=IFCCARTESIANPOINT((1.,34.,0.));
#672=IFCPOLYLINE((#670,#671));
#673=IFCGRIDAXIS('A',#672,.T.);
#674=IFCCARTESIANPOINT((16.,-2.,0.));
#675=IFCCARTESIANPOINT((16.,34.,0.));
#676=IFCPOLYLINE((#674,#675));
#677=IFCGRIDAXIS('B',#676,.T.);
#678=IFCCARTESIANPOINT((32.,-2.,0.));
#679=IFCCARTESIANPOINT((32.,34.,0.));
#680=IFCPOLYLINE((#678,#679));
#681=IFCGRIDAXIS('C',#680,.T.);
#682=IFCCARTESIANPOINT((47.,-2.,0.));
#683=IFCCARTESIANPOINT((47.,34.,0.));
#684=IFCPOLYLINE((#682,#683));
#685=IFCGRIDAXIS('D',#684,.T.);
#686=IFCCARTESIANPOINT((-2.,1.,0.));
#687=IFCCARTESIANPOINT((50.,1.,0.));
#688=IFCPOLYLINE((#686,#687));
#689=IFCGRIDAXIS('1',#688,.T.);
#690=IFCCARTESIANPOINT((-2.,11.,0.));
#691=IFCCARTESIANPOINT((50.,11.,0.));
#692=IFCPOLYLINE((#690,#691));
#693=IFCGRIDAXIS('2',#692,.T.);
#694=IFCCARTESIANPOINT((-2.,21.,0.));
#695=IFCCARTESIANPOINT((50.,21.,0.));
#696=IFCPOLYLINE((#694,#695));
#697=IFCGRIDAXIS('3',#696,.T.);
#698=IFCCARTESIANPOINT((-2.,31.,0.));
#699=IFCCARTESIANPOINT((50.,31.,0.));
#700=IFCPOLYLINE((#698,#699));
#701=IFCGRIDAXIS('4',#700,.T.);
#702=IFCGRID('1aIFBC5crKMe_1lLSg5PYR',$,'Ground floor reference grid',$,$,$,$,(#673,#677,#681,#685),(#689,#693,#697,#701),$,$);
ENDSEC;
END-ISO-10303-21;
